<?xml version="1.0" encoding="utf-8"?>
<!-- Generator: Adobe Illustrator 25.2.1, SVG Export Plug-In . SVG Version: 6.00 Build 0)  -->
<svg version="1.1" id="Layer_1" xmlns="http://www.w3.org/2000/svg" xmlns:xlink="http://www.w3.org/1999/xlink" x="0px" y="0px"
	 viewBox="0 0 52.2 44.3" style="enable-background:new 0 0 52.2 44.3;" xml:space="preserve">
<style type="text/css">
	.st0{fill:#0D4791;}
</style>
<g>
	<g>
		<g id="XMLID_261_">
			<g id="XMLID_262_">
				<path id="XMLID_263_" class="st0" d="M48,10.9c-1,0-1.8-0.8-1.8-1.8s0.8-1.8,1.8-1.8c1,0,1.8,0.8,1.8,1.8S49,10.9,48,10.9z"/>
			</g>
		</g>
		<g id="XMLID_257_">
			<g id="XMLID_258_">
				<path id="XMLID_259_" class="st0" d="M48.9,18.8c-1,0-1.8-0.8-1.8-1.8c0-1,0.8-1.8,1.8-1.8c1,0,1.8,0.8,1.8,1.8
					C50.6,18,49.8,18.8,48.9,18.8z"/>
			</g>
		</g>
		<g id="XMLID_255_">
			<path id="XMLID_256_" class="st0" d="M40.5,11.6h-7.7c-0.4,0-0.6-0.3-0.6-0.6c0-0.4,0.3-0.6,0.6-0.6h7.1V3.5
				c0-0.4,0.3-0.6,0.6-0.6s0.6,0.3,0.6,0.6V11C41.2,11.3,40.9,11.6,40.5,11.6z"/>
		</g>
		<g id="XMLID_253_">
			<path id="XMLID_254_" class="st0" d="M48,14.6H30.4c-0.4,0-0.6-0.3-0.6-0.6c0-0.4,0.3-0.6,0.6-0.6h17v-2.4c0-0.4,0.3-0.6,0.6-0.6
				c0.4,0,0.6,0.3,0.6,0.6v3C48.7,14.3,48.4,14.6,48,14.6z"/>
		</g>
		<g id="XMLID_251_">
			<path id="XMLID_252_" class="st0" d="M47.6,17.6H30.1c-0.4,0-0.6-0.3-0.6-0.6c0-0.4,0.3-0.6,0.6-0.6h17.5c0.4,0,0.6,0.3,0.6,0.6
				C48.2,17.3,47.9,17.6,47.6,17.6z"/>
		</g>
		<g id="XMLID_249_">
			<path id="XMLID_250_" class="st0" d="M44,24.9h-2.6c-0.4,0-0.6-0.3-0.6-0.6v-3.6h-8.1c-0.4,0-0.6-0.3-0.6-0.6
				c0-0.4,0.3-0.6,0.6-0.6h8.8c0.4,0,0.6,0.3,0.6,0.6v3.6h2c0.4,0,0.6,0.3,0.6,0.6C44.6,24.6,44.4,24.9,44,24.9z"/>
		</g>
		<g id="XMLID_241_">
			<g id="XMLID_242_">
				<path id="XMLID_243_" class="st0" d="M40.5,3.6c-1,0-1.8-0.8-1.8-1.8s0.8-1.8,1.8-1.8c1,0,1.8,0.8,1.8,1.8S41.5,3.6,40.5,3.6z"
					/>
			</g>
		</g>
		<g id="XMLID_199_">
			<g id="XMLID_201_">
				<path id="XMLID_202_" class="st0" d="M45.3,25.9c-1,0-1.8-0.8-1.8-1.8c0-1,0.8-1.8,1.8-1.8c1,0,1.8,0.8,1.8,1.8
					C47.1,25.1,46.3,25.9,45.3,25.9z"/>
			</g>
		</g>
	</g>
	<path class="st0" d="M37.7,38.3c-0.1,0.1-0.2,0.2-0.3,0.3c-5.1,4.3-12.2,6.3-19.2,4.5C6.5,40.3-0.6,28.4,2.2,16.8
		c2.8-11.5,14.5-18.6,26-16c0.5,0.1,1,0.2,1.5,0.3c0.5,0.2,0.8,0.7,0.7,1.3c-0.1,0.6-0.7,1.1-1.1,1L27,3.1c0,4.6,0,6.1,0,6.1
		c-1.1,4.1,0.7,5.4,0.7,5.4c1.2,1.2,0.1,2.1,0.1,2.1c-1.6,1.1-2.3,2.8-2.3,2.8c-0.2,2.3,0.9,3.5,0.9,3.5l3.5,3.5
		c3.6,2.6,1.2,5.2,1.2,5.2c-2,2.2,0.3,3.5,0.3,3.5l3.8,2.1l1.1-0.7c0.4-0.3,1.1-0.1,1.4,0.5C38.2,37.4,38.1,38,37.7,38.3z
		 M14.3,38.9c0,0-1.7-3.6-0.7-5.3c0.4-0.7,0.9-1.6,3.2-1c2,0.5,2.3-0.8,2.3-1.5c-0.1-0.7,0.3-1.6,0.6-2c0.9-1,1.6-0.9,2.1-0.9
		c0.5,0,1.3-0.6,1.3-0.6c0.8-0.5,1.1-1.5,1.1-1.5c0.5-1.3-0.1-2.1-0.1-2.1l-1.7-0.4c-3.1-0.8-3.9-4.3-3.9-4.3
		c-0.3-2-2.5-2.5-2.5-2.5s0-0.1-1.7-0.4c-1.7-0.3-1-1.9-1-1.9l0.7-2.6c0.8-2.5,2.9-3.6,2.9-3.6C19.9,7,24.1,3,24.1,3
		S13.3,2.2,7.4,11.8c0,0-6.7,9-1.2,19.2C7.6,33.5,9.6,36.5,14.3,38.9z"/>
</g>
</svg>
